<?xml version="1.0" encoding="UTF-8" standalone="no"?><svg width="137" height="30" viewBox="0 0 137 30" fill="none" xmlns="http://www.w3.org/2000/svg">
<g clip-path="url(#clip0)">
<path d="M124.531 9.17307H126.775L125.989 6.51534C125.848 6.04493 125.723 5.53827 125.723 5.53827C125.692 5.45358 125.614 5.46578 125.598 5.53827C125.598 5.53827 125.473 6.00868 125.332 6.51534L124.531 9.17307ZM124.878 4.11464H126.474L129.119 12.5596H127.773L127.097 10.2825H124.193L123.517 12.5596H122.297L124.878 4.11464Z" fill="white"/>
<path d="M92.3158 9.17307H94.5603L93.7744 6.51534C93.6335 6.04493 93.5083 5.53827 93.5083 5.53827C93.4769 5.45358 93.3988 5.46578 93.3831 5.53827C93.3831 5.53827 93.2579 6.00868 93.117 6.51534L92.3158 9.17307ZM92.6633 4.11464H94.2592L96.9036 12.5596H95.5579L94.8818 10.2825H91.9778L91.302 12.5596H90.0815L92.6633 4.11464Z" fill="white"/>
<path d="M55.1226 11.1496C54.9772 11.2802 54.7742 11.3092 54.629 11.3092C54.5565 11.3092 54.397 11.2946 54.2954 11.2367L54.092 12.4846C54.3243 12.5715 54.4548 12.6152 54.7015 12.6152C56.5589 12.6006 56.8346 11.0771 56.8346 6.75318V5.221H59.1852V12.5571H60.3751V4.13299H55.7028C55.7028 9.64685 55.7609 10.5694 55.1226 11.1496Z" fill="white"/>
<path d="M103.489 11.4708H100.7C101.049 10.5422 101.325 8.8443 101.339 6.75481L101.367 5.20081H103.502L103.489 11.4708ZM104.519 14.0791H105.651V11.456H104.678V4.11501H100.236C100.236 9.59985 100.033 10.7452 99.2348 11.456H98.3811V14.0791H99.5128V12.5589H104.519V14.0791Z" fill="white"/>
<path d="M43.851 10.0031C43.851 10.4678 43.6848 10.8225 43.3429 11.0875C42.9963 11.3558 42.5163 11.492 41.9155 11.492H40.9547V8.45654H41.8458C42.5035 8.45654 43.0098 8.59411 43.3503 8.86575C43.6873 9.13461 43.851 9.50665 43.851 10.0031ZM41.9503 7.38868H40.9547V5.20044H42.0084C42.5337 5.20044 42.9342 5.29585 43.1988 5.48317C43.4542 5.66456 43.5782 5.91845 43.5782 6.25998C43.5782 7.01959 43.0457 7.38868 41.9503 7.38868ZM43.569 7.92603C43.8976 7.78513 44.1683 7.59097 44.3767 7.34689C44.6517 7.02422 44.7909 6.6507 44.7909 6.23668C44.7909 5.57026 44.5511 5.04567 44.0777 4.67732C43.6132 4.31619 42.9658 4.13294 42.1535 4.13294H39.7654V12.5596H42.2114C42.9945 12.5596 43.6748 12.3279 44.2338 11.8712C44.8 11.4086 45.0869 10.7799 45.0869 10.0031C45.0869 9.47004 44.9214 9.00314 44.5949 8.61501C44.3334 8.30454 43.9895 8.07377 43.569 7.92603Z" fill="white"/>
<path d="M51.5038 8.34977C51.5038 10.5352 50.9346 11.6432 49.812 11.6432C49.2627 11.6432 48.8568 11.3784 48.5707 10.8335C48.2754 10.2712 48.1258 9.43557 48.1258 8.34977C48.1258 7.27525 48.2765 6.4413 48.5739 5.87122C48.8618 5.3187 49.2669 5.05021 49.812 5.05021C50.9346 5.05021 51.5038 6.16042 51.5038 8.34977ZM49.812 3.97662C48.8568 3.97662 48.1184 4.3616 47.6177 5.12122C47.1269 5.86493 46.8784 6.9511 46.8784 8.34977C46.8784 9.74825 47.1281 10.8335 47.6207 11.5753C48.1236 12.3329 48.8607 12.7168 49.812 12.7168C50.7708 12.7168 51.511 12.3318 52.0121 11.5723C52.5027 10.8283 52.7512 9.74418 52.7512 8.34977C52.7512 6.94722 52.5016 5.85994 52.009 5.11807C51.5062 4.36068 50.7669 3.97662 49.812 3.97662Z" fill="white"/>
<path d="M63.1072 12.5596H64.2967V5.20044H67.8021V4.13294H63.1072V12.5596Z" fill="white"/>
<path d="M70.2035 8.34977C70.2035 7.27525 70.3544 6.4413 70.6515 5.87122C70.9396 5.3187 71.3446 5.05021 71.8897 5.05021C73.0125 5.05021 73.5816 6.16042 73.5816 8.34977C73.5816 10.5352 73.0125 11.6432 71.8897 11.6432C71.3405 11.6432 70.9344 11.3784 70.6484 10.8335C70.3532 10.2712 70.2035 9.43557 70.2035 8.34977ZM71.8897 12.7168C72.8486 12.7168 73.5888 12.3318 74.0899 11.5723C74.5803 10.8283 74.829 9.74418 74.829 8.34977C74.829 6.94722 74.5792 5.85994 74.0866 5.11807C73.5838 4.36068 72.8446 3.97662 71.8897 3.97662C70.9344 3.97662 70.1961 4.3616 69.6953 5.12122C69.2048 5.86493 68.9561 6.9511 68.9561 8.34977C68.9561 9.74825 69.2059 10.8335 69.6985 11.5753C70.2013 12.3329 70.9385 12.7168 71.8897 12.7168Z" fill="white"/>
<path d="M78.2581 5.20044H81.7635V4.13294H77.0686V12.5596H78.2581V5.20044Z" fill="white"/>
<path d="M87.6587 6.53254C87.6587 7.39774 87.1489 7.81841 86.1003 7.81841H85.1863V5.20044H86.1467C86.5946 5.20044 86.9635 5.32525 87.2434 5.57137C87.5228 5.81693 87.6587 6.13146 87.6587 6.53254ZM85.1863 8.8859H86.2338C87.0223 8.8859 87.6708 8.66604 88.161 8.23224C88.6556 7.79456 88.9063 7.20321 88.9063 6.47466C88.9063 5.74833 88.6536 5.169 88.1556 4.7524C87.6637 4.34152 87.0036 4.13294 86.1931 4.13294H83.9966V12.5596H85.1863V8.8859Z" fill="white"/>
<path d="M121.034 4.13294H119.614L116.152 7.87185V4.13294H114.962V12.5596H116.152V9.41105L116.884 8.61464L119.603 12.5596H121.095L117.717 7.72115L121.034 4.13294Z" fill="white"/>
<path d="M134.951 5.20044V7.77181H134.013C133.538 7.77181 133.15 7.64404 132.861 7.392C132.572 7.14053 132.431 6.83265 132.431 6.45136C132.431 5.60965 132.941 5.20044 133.99 5.20044H134.951ZM133.851 4.13294C133.064 4.13294 132.422 4.32821 131.942 4.7132C131.454 5.10484 131.207 5.66993 131.207 6.3933C131.207 6.91919 131.383 7.3933 131.732 7.80251C132.046 8.17122 132.469 8.43564 132.992 8.5893L130.344 12.5596H131.82L134.223 8.83949H134.951V12.5596H136.14V4.13294H133.851Z" fill="white"/>
<path d="M112.052 10.805C111.722 11.3117 111.237 11.5587 110.596 11.5587C109.955 11.5587 109.347 11.3784 109.013 10.8335C108.669 10.2712 108.494 9.43557 108.494 8.34977C108.494 7.27525 108.67 6.4413 109.017 5.87122C109.353 5.3187 109.959 5.11733 110.596 5.11733C111.233 5.11733 111.717 5.36678 112.046 5.87325L112.994 4.92503C112.415 4.29633 111.61 3.97662 110.596 3.97662C109.481 3.97662 108.619 4.3616 108.035 5.12122C107.462 5.86493 107.172 6.9511 107.172 8.34977C107.172 9.74825 107.464 10.8335 108.038 11.5753C108.625 12.3329 109.486 12.7168 110.596 12.7168C111.619 12.7168 112.427 12.3941 113.005 11.7586L112.052 10.805Z" fill="white"/>
<path d="M64.9682 22.4807H67.2125L66.4266 19.823C66.2859 19.3524 66.1607 18.8459 66.1607 18.8459C66.1293 18.7613 66.0511 18.7736 66.0354 18.8459C66.0354 18.8459 65.9102 19.3165 65.7695 19.823L64.9682 22.4807ZM65.3159 17.4223H66.9117L69.5561 25.8672H68.2105L67.5344 23.5902H64.6304L63.9544 25.8672H62.7341L65.3159 17.4223Z" fill="white"/>
<path d="M55.4444 24.464C55.2994 24.5946 55.096 24.6237 54.951 24.6237C54.8784 24.6237 54.719 24.609 54.6173 24.5512L54.4141 25.7991C54.6463 25.886 54.7769 25.9297 55.0235 25.9297C56.8808 25.9151 57.1567 24.3914 57.1567 20.0676V18.5356H59.5072V25.8716H60.697V17.4474H56.0246C56.0246 22.9613 56.0829 23.8836 55.4444 24.464Z" fill="white"/>
<path d="M44.0209 21.6562C44.0209 23.8419 43.4517 24.95 42.3291 24.95C41.7797 24.95 41.3739 24.6851 41.0878 24.1401C40.7925 23.5778 40.6431 22.742 40.6431 21.6562C40.6431 20.5819 40.7936 19.748 41.091 19.1778C41.3789 18.6255 41.784 18.3568 42.3291 18.3568C43.4517 18.3568 44.0209 19.467 44.0209 21.6562ZM42.3291 17.2834C41.3739 17.2834 40.6355 17.6684 40.1348 18.4279C39.6442 19.1716 39.3955 20.2577 39.3955 21.6562C39.3955 23.0549 39.6451 24.1401 40.1377 24.8821C40.6407 25.6394 41.3778 26.0234 42.3291 26.0234C43.2881 26.0234 44.0281 25.6385 44.5292 24.8788C45.0198 24.1351 45.2686 23.0506 45.2686 21.6562C45.2686 20.2536 45.0186 19.1666 44.526 18.4247C44.0233 17.6673 43.284 17.2834 42.3291 17.2834Z" fill="white"/>
<path d="M51.7435 23.311C51.7435 23.7753 51.5773 24.13 51.2354 24.3951C50.8889 24.6634 50.4085 24.7997 49.8079 24.7997H48.8472V21.764H49.7382C50.3772 21.764 50.8791 21.9021 51.2293 22.1742C51.5752 22.4431 51.7435 22.8151 51.7435 23.311ZM52.1172 21.3875C51.5525 20.929 50.7757 20.6963 49.8079 20.6963H48.8472V18.5083H52.3643V17.4405H47.6577V25.8672H50.1039C50.8866 25.8672 51.5671 25.6355 52.1261 25.1788C52.6925 24.7161 52.9795 24.0876 52.9795 23.311C52.9795 22.4992 52.6891 21.8522 52.1172 21.3875Z" fill="white"/>
<path d="M78.252 18.4502H80.7878V25.8672H81.9718V18.4502H84.4962V17.4405H78.252V18.4502Z" fill="white"/>
<path d="M89.979 23.311C89.979 23.7753 89.8129 24.13 89.4708 24.3951C89.1243 24.6634 88.6441 24.7997 88.0435 24.7997H87.5589V21.764H87.9738C88.613 21.764 89.1147 21.9021 89.4649 22.1742C89.8109 22.4431 89.979 22.8151 89.979 23.311ZM90.3529 21.3875C89.7882 20.929 89.0112 20.6963 88.0435 20.6963H87.5589V17.4405H86.3691V25.8672H88.3394C89.1225 25.8672 89.8028 25.6355 90.3617 25.1788C90.9279 24.7161 91.2151 24.0876 91.2151 23.311C91.2151 22.4992 90.925 21.8522 90.3529 21.3875Z" fill="white"/>
<path d="M75.7581 24.1029C75.4286 24.6095 74.943 24.8566 74.3017 24.8566C73.6608 24.8566 73.053 24.6761 72.7194 24.1312C72.375 23.569 72.2004 22.7334 72.2004 21.6474C72.2004 20.5731 72.3763 19.7391 72.723 19.1691C73.0591 18.6165 73.6658 18.4152 74.3017 18.4152C74.9397 18.4152 75.4232 18.6646 75.7527 19.1711L76.701 18.2229C76.1218 17.594 75.3167 17.2745 74.3017 17.2745C73.1871 17.2745 72.3256 17.6595 71.7413 18.419C71.1688 19.1626 70.8787 20.2487 70.8787 21.6474C70.8787 23.046 71.1701 24.1314 71.7448 24.8733C72.3315 25.6306 73.1919 26.0146 74.3017 26.0146C75.3247 26.0146 76.1335 25.6918 76.7117 25.0564L75.7581 24.1029Z" fill="white"/>
<path d="M0.130371 0.000164032H8.16882L16.2072 30H8.16882L0.130371 0.000164032Z" fill="white"/>
<path d="M32.2841 0.000162125H24.2457L16.2073 30H24.2457L32.2841 0.000162125Z" fill="white"/>
</g>
<defs>
<clipPath id="clip0">
<rect width="136.141" height="30" fill="white"/>
</clipPath>
</defs>
</svg>
